<svg width="285" height="46" viewBox="0 0 285 46" fill="none" xmlns="http://www.w3.org/2000/svg">
<g clip-path="url(#clip0)">
<path d="M2.015 35V34.504L4.495 33.264V16.276L2.015 15.036V14.54H9.858C11.222 14.54 12.4413 14.7157 13.516 15.067C14.6113 15.3977 15.469 15.904 16.089 16.586C16.709 17.2473 17.019 18.0947 17.019 19.128C17.019 20.182 16.6677 21.1533 15.965 22.042C15.2623 22.91 14.2497 23.53 12.927 23.902C14.7663 24.15 16.2027 24.7287 17.236 25.638C18.2693 26.5267 18.786 27.6633 18.786 29.048C18.786 30.1847 18.4243 31.2077 17.701 32.117C16.9983 33.0057 16.027 33.7083 14.787 34.225C13.547 34.7417 12.1417 35 10.571 35H2.015ZM9.145 16.245H7.285V23.592H9.331C10.7983 23.592 11.9453 23.282 12.772 22.662C13.5987 22.0213 14.012 21.1327 14.012 19.996C14.012 17.4953 12.3897 16.245 9.145 16.245ZM10.323 25.297H7.285V33.295H10.54C12.1727 33.295 13.454 32.923 14.384 32.179C15.314 31.435 15.779 30.474 15.779 29.296C15.779 27.8907 15.3037 26.878 14.353 26.258C13.423 25.6173 12.0797 25.297 10.323 25.297ZM22.4193 35V34.504L24.8993 33.264V16.276L22.4193 15.036V14.54H30.4173C32.5873 14.54 34.2923 14.9947 35.5323 15.904C36.793 16.7927 37.4233 18.0223 37.4233 19.593C37.4233 20.7503 37.0306 21.794 36.2453 22.724C35.46 23.6333 34.4163 24.3257 33.1143 24.801L39.0043 33.388L41.0503 34.504V35H36.5863L30.5723 25.607H27.6893V33.233L30.0143 34.504V35H22.4193ZM29.7043 16.245H27.6893V23.902H29.8903C31.1923 23.902 32.267 23.5403 33.1143 22.817C33.9823 22.073 34.4163 21.1327 34.4163 19.996C34.4163 18.8387 33.9926 17.9293 33.1453 17.268C32.298 16.586 31.151 16.245 29.7043 16.245ZM52.8489 35.31C51.2989 35.31 49.9143 35.0207 48.6949 34.442C47.4963 33.8633 46.5456 32.9747 45.8429 31.776C45.1403 30.5567 44.7889 28.986 44.7889 27.064V16.276L42.3089 15.036V14.54H50.0589V15.036L47.5789 16.276V26.599C47.5789 28.3143 47.8476 29.6783 48.3849 30.691C48.9223 31.7037 49.6456 32.427 50.5549 32.861C51.4849 33.295 52.5183 33.512 53.6549 33.512C54.5643 33.512 55.4013 33.3157 56.1659 32.923C56.9513 32.5303 57.5713 31.9103 58.0259 31.063C58.5013 30.2157 58.7389 29.0893 58.7389 27.684V16.214L55.6389 15.036V14.54H63.3579V15.036L60.9089 16.245V27.064C60.9089 28.986 60.5576 30.5567 59.8549 31.776C59.1523 32.9747 58.1913 33.8633 56.9719 34.442C55.7733 35.0207 54.3989 35.31 52.8489 35.31ZM67.2204 35V34.504L69.7004 33.264V16.338L67.2514 15.036V14.54H71.8084L83.6504 29.42V16.214L80.5504 15.036V14.54H88.2694V15.036L85.8204 16.245V35.155H84.6734L71.8704 19.004V33.295L74.9704 34.504V35H67.2204ZM102.617 35.31C101.129 35.31 99.7547 35.0517 98.494 34.535C97.254 33.9977 96.169 33.264 95.239 32.334C94.309 31.3833 93.5857 30.2673 93.069 28.986C92.5524 27.7047 92.294 26.2993 92.294 24.77C92.294 23.2407 92.5524 21.8353 93.069 20.554C93.5857 19.2727 94.309 18.167 95.239 17.237C96.169 16.2863 97.254 15.5527 98.494 15.036C99.7547 14.4987 101.129 14.23 102.617 14.23C104.105 14.23 105.479 14.4987 106.74 15.036C108.001 15.5527 109.096 16.2863 110.026 17.237C110.956 18.167 111.679 19.2727 112.196 20.554C112.713 21.8353 112.971 23.2407 112.971 24.77C112.971 26.2993 112.713 27.7047 112.196 28.986C111.679 30.2673 110.956 31.3833 110.026 32.334C109.096 33.264 108.001 33.9977 106.74 34.535C105.479 35.0517 104.105 35.31 102.617 35.31ZM103.268 33.76C104.591 33.76 105.748 33.4293 106.74 32.768C107.753 32.1067 108.538 31.1767 109.096 29.978C109.675 28.7793 109.964 27.3637 109.964 25.731C109.964 23.7263 109.613 21.98 108.91 20.492C108.207 18.9833 107.257 17.8157 106.058 16.989C104.88 16.1623 103.557 15.749 102.09 15.749C100.767 15.749 99.5894 16.0797 98.556 16.741C97.5434 17.3817 96.7477 18.3013 96.169 19.5C95.5904 20.6987 95.301 22.1143 95.301 23.747C95.301 25.7517 95.6524 27.5083 96.355 29.017C97.0784 30.5257 98.0394 31.6933 99.238 32.52C100.437 33.3467 101.78 33.76 103.268 33.76ZM123.314 35.31C122.033 35.31 120.948 35.1963 120.059 34.969C119.17 34.721 118.251 34.3593 117.3 33.884L116.99 28.8H117.486L119.005 32.086C119.749 32.706 120.472 33.1607 121.175 33.45C121.878 33.7187 122.591 33.853 123.314 33.853C124.533 33.853 125.484 33.5327 126.166 32.892C126.869 32.2513 127.22 31.3833 127.22 30.288C127.22 29.3787 127.013 28.6657 126.6 28.149C126.207 27.6323 125.629 27.1777 124.864 26.785C124.12 26.3717 123.231 25.9067 122.198 25.39C121.227 24.894 120.4 24.4083 119.718 23.933C119.036 23.4577 118.519 22.91 118.168 22.29C117.817 21.6493 117.641 20.8537 117.641 19.903C117.641 19.2003 117.806 18.5183 118.137 17.857C118.488 17.175 118.953 16.5653 119.532 16.028C120.131 15.47 120.793 15.036 121.516 14.726C122.26 14.3953 123.025 14.23 123.81 14.23C124.761 14.23 125.639 14.3437 126.445 14.571C127.251 14.7983 128.078 15.1187 128.925 15.532L129.235 20.492H128.739L127.313 17.237C126.59 16.6997 125.959 16.3173 125.422 16.09C124.885 15.842 124.265 15.718 123.562 15.718C122.653 15.718 121.898 16.028 121.299 16.648C120.72 17.268 120.431 18.0327 120.431 18.942C120.431 19.996 120.751 20.8227 121.392 21.422C122.033 22.0007 123.035 22.6207 124.399 23.282C125.66 23.902 126.693 24.4807 127.499 25.018C128.305 25.5347 128.904 26.134 129.297 26.816C129.69 27.498 129.886 28.366 129.886 29.42C129.886 30.3913 129.679 31.249 129.266 31.993C128.853 32.7163 128.315 33.326 127.654 33.822C127.013 34.318 126.3 34.69 125.515 34.938C124.75 35.186 124.017 35.31 123.314 35.31ZM133.614 35V34.504L136.094 33.264V16.276L133.614 15.036V14.54H141.364V15.036L138.884 16.276V23.592H149.424V16.276L146.944 15.036V14.54H154.694V15.036L152.214 16.276V33.264L154.694 34.504V35H146.944V34.504L149.424 33.264V25.297H138.884V33.264L141.364 34.504V35H133.614ZM169.188 35.31C167.7 35.31 166.326 35.0517 165.065 34.535C163.825 33.9977 162.74 33.264 161.81 32.334C160.88 31.3833 160.157 30.2673 159.64 28.986C159.124 27.7047 158.865 26.2993 158.865 24.77C158.865 23.2407 159.124 21.8353 159.64 20.554C160.157 19.2727 160.88 18.167 161.81 17.237C162.74 16.2863 163.825 15.5527 165.065 15.036C166.326 14.4987 167.7 14.23 169.188 14.23C170.676 14.23 172.051 14.4987 173.311 15.036C174.572 15.5527 175.667 16.2863 176.597 17.237C177.527 18.167 178.251 19.2727 178.767 20.554C179.284 21.8353 179.542 23.2407 179.542 24.77C179.542 26.2993 179.284 27.7047 178.767 28.986C178.251 30.2673 177.527 31.3833 176.597 32.334C175.667 33.264 174.572 33.9977 173.311 34.535C172.051 35.0517 170.676 35.31 169.188 35.31ZM169.839 33.76C171.162 33.76 172.319 33.4293 173.311 32.768C174.324 32.1067 175.109 31.1767 175.667 29.978C176.246 28.7793 176.535 27.3637 176.535 25.731C176.535 23.7263 176.184 21.98 175.481 20.492C174.779 18.9833 173.828 17.8157 172.629 16.989C171.451 16.1623 170.129 15.749 168.661 15.749C167.339 15.749 166.161 16.0797 165.127 16.741C164.115 17.3817 163.319 18.3013 162.74 19.5C162.162 20.6987 161.872 22.1143 161.872 23.747C161.872 25.7517 162.224 27.5083 162.926 29.017C163.65 30.5257 164.611 31.6933 165.809 32.52C167.008 33.3467 168.351 33.76 169.839 33.76ZM183.716 35V34.504L186.196 33.264V16.276L183.716 15.036V14.54H198.875V19.872H198.379L196.457 16.245H188.986V23.592H194.256L195.806 21.019H196.302V27.808H195.806L194.256 25.297H188.986V33.295H197.325L199.247 29.358H199.743V35H183.716ZM210.108 35.31C208.826 35.31 207.741 35.1963 206.853 34.969C205.964 34.721 205.044 34.3593 204.094 33.884L203.784 28.8H204.28L205.799 32.086C206.543 32.706 207.266 33.1607 207.969 33.45C208.671 33.7187 209.384 33.853 210.108 33.853C211.327 33.853 212.278 33.5327 212.96 32.892C213.662 32.2513 214.014 31.3833 214.014 30.288C214.014 29.3787 213.807 28.6657 213.394 28.149C213.001 27.6323 212.422 27.1777 211.658 26.785C210.914 26.3717 210.025 25.9067 208.992 25.39C208.02 24.894 207.194 24.4083 206.512 23.933C205.83 23.4577 205.313 22.91 204.962 22.29C204.61 21.6493 204.435 20.8537 204.435 19.903C204.435 19.2003 204.6 18.5183 204.931 17.857C205.282 17.175 205.747 16.5653 206.326 16.028C206.925 15.47 207.586 15.036 208.31 14.726C209.054 14.3953 209.818 14.23 210.604 14.23C211.554 14.23 212.433 14.3437 213.239 14.571C214.045 14.7983 214.871 15.1187 215.719 15.532L216.029 20.492H215.533L214.107 17.237C213.383 16.6997 212.753 16.3173 212.216 16.09C211.678 15.842 211.058 15.718 210.356 15.718C209.446 15.718 208.692 16.028 208.093 16.648C207.514 17.268 207.225 18.0327 207.225 18.942C207.225 19.996 207.545 20.8227 208.186 21.422C208.826 22.0007 209.829 22.6207 211.193 23.282C212.453 23.902 213.487 24.4807 214.293 25.018C215.099 25.5347 215.698 26.134 216.091 26.816C216.483 27.498 216.68 28.366 216.68 29.42C216.68 30.3913 216.473 31.249 216.06 31.993C215.646 32.7163 215.109 33.326 214.448 33.822C213.807 34.318 213.094 34.69 212.309 34.938C211.544 35.186 210.81 35.31 210.108 35.31Z" fill="white"/>
<path d="M277.791 38.4546C277.166 36.2586 275.33 34.9247 273.9 34.1923C270.962 32.6879 267.739 29.4882 264.857 25.8342L265.287 25.5385C265.657 25.284 265.773 24.7415 265.546 24.327C265.318 23.9123 264.834 23.783 264.464 24.0373L263.82 24.4804C263.443 23.9748 263.074 23.4637 262.714 22.95L263.354 22.4843C263.718 22.2192 263.822 21.6736 263.585 21.2658C263.348 20.8578 262.861 20.7421 262.497 21.0072L261.757 21.5461C261.342 20.9212 260.943 20.2969 260.562 19.6782L261.112 19.2961C261.481 19.0394 261.594 18.4963 261.365 18.0831C261.135 17.6697 260.651 17.5428 260.282 17.7998L259.688 18.2131C258.651 16.4196 257.792 14.7152 257.183 13.2404C257.095 12.9759 256.345 10.5495 257.84 8.87441C258.147 8.53042 258.147 7.97263 257.84 7.62876C257.533 7.28477 257.035 7.28477 256.728 7.62876C255.116 9.43463 255.252 11.7359 255.492 12.9934C254.552 13.2923 252.784 13.7881 250.797 14.0107C246.086 14.5392 243.77 13.1649 242.658 11.919C238.616 7.39247 238.354 2.88163 238.352 2.83966C238.337 2.47027 238.117 2.15121 237.802 2.04049C237.487 1.92977 237.144 2.05104 236.943 2.34436L225.163 19.5206C225.029 19.7159 224.974 19.9647 225.011 20.2071C225.049 20.4495 225.175 20.6633 225.359 20.7969C225.58 20.9563 247.444 36.7841 253.605 40.974C258.62 44.384 265.436 46.0001 270.654 46C272.229 46 273.66 45.8525 274.851 45.5626C275.047 45.515 275.219 45.3856 275.332 45.2008L277.777 41.2179C277.778 41.2152 277.78 41.2119 277.781 41.2092C277.8 41.1775 277.817 41.1445 277.833 41.1103C277.836 41.104 277.838 41.0976 277.841 41.0911C277.854 41.0589 277.866 41.0259 277.876 40.9918C277.877 40.9884 277.878 40.9852 277.879 40.9818C277.88 40.9794 277.881 40.9741 277.882 40.9709C277.883 40.9672 277.884 40.9635 277.885 40.9598C277.934 40.7747 278.164 39.7641 277.791 38.4546ZM243.81 28.3383C249.827 32.6472 253.946 35.5584 256.05 36.9911C261.065 40.4012 267.881 42.017 273.099 42.017C273.929 42.017 274.717 41.9749 275.453 41.8938L274.216 43.9102C271.765 44.4362 268.396 44.3436 264.903 43.6481C260.951 42.8611 257.228 41.3766 254.422 39.4682C248.912 35.7219 230.77 22.6137 226.93 19.836L228.605 17.3939C234.211 21.4464 238.543 24.5614 241.217 26.4804C241.349 26.5746 241.495 26.6196 241.641 26.6196C241.9 26.6196 242.153 26.4763 242.303 26.2138C242.538 25.8042 242.431 25.2595 242.066 24.997C240.881 24.1471 239.371 23.0619 237.569 21.765C238.392 20.0673 238.825 18.1653 238.825 16.2132C238.825 13.5053 237.977 10.8674 236.437 8.7856C236.16 8.41088 235.664 8.35894 235.329 8.6692C234.995 8.97956 234.948 9.53491 235.225 9.9094C236.532 11.6758 237.252 13.9146 237.252 16.2131C237.252 17.8262 236.903 19.3979 236.241 20.8087C234.292 19.4048 232.056 17.7916 229.566 15.992L237.119 4.97885C237.6 6.9395 238.759 10.0435 241.545 13.1643C245.546 17.6447 253.646 15.437 256.043 14.6519C256.654 16.0328 257.445 17.5616 258.357 19.1387L255.685 20.9977C255.316 21.2544 255.203 21.7975 255.432 22.2107C255.581 22.4793 255.838 22.6268 256.101 22.6268C256.243 22.6268 256.386 22.5839 256.515 22.494L259.231 20.6043C259.62 21.2368 260.024 21.8719 260.441 22.5036L258.318 24.0495C257.954 24.3146 257.851 24.8602 258.087 25.2681C258.238 25.5278 258.49 25.669 258.747 25.669C258.894 25.669 259.043 25.623 259.175 25.5265L261.395 23.9106C261.747 24.4168 262.106 24.9173 262.469 25.4095L260.494 26.7675C260.124 27.022 260.008 27.5645 260.235 27.979C260.384 28.2498 260.642 28.399 260.906 28.399C261.047 28.399 261.189 28.357 261.317 28.2687L263.499 26.768C267.801 32.2902 271.156 34.7247 273.246 35.7945C276.094 37.2529 276.441 39.1088 276.43 39.9739C274.001 40.4464 270.733 40.3389 267.348 39.665C263.396 38.878 259.673 37.3935 256.867 35.4854C254.773 34.0599 250.665 31.1558 244.657 26.8541C244.291 26.5921 243.805 26.7119 243.571 27.1218C243.337 27.5317 243.444 28.0763 243.81 28.3383Z" fill="white"/>
</g>
<defs>
<clipPath id="clip0">
<rect width="285" height="46" fill="white"/>
</clipPath>
</defs>
</svg>
